<svg xmlns="http://www.w3.org/2000/svg" width="400" height="400" viewBox="0 0 400 400"><path fill="#fff" d="M0 0h400v400H0z"/><circle cx="200" cy="200" r="150" fill="none" stroke="#333" stroke-dasharray="4,4" stroke-width="2"/><ellipse cx="200" cy="200" fill="none" stroke="#666" stroke-dasharray="5,5" stroke-width="1.5" rx="150" ry="45"/><path stroke="#000" stroke-width="1.5" d="M200 350V30"/><path d="M196 30h8l-4-10z"/><text x="210" y="30" font-family="Arial" font-size="16" font-style="italic">|0⟩ (Z)</text><text x="210" y="380" font-family="Arial" font-size="16" font-style="italic">|1⟩ (-Z)</text><path stroke="#000" stroke-width="1.5" d="M50 200h310"/><path d="M360 196v8l10-4z"/><text x="375" y="205" font-family="Arial" font-size="16" font-style="italic">y</text><path stroke="#000" stroke-width="1.5" d="m120 280 140-140"/><path d="m122 284-7-7v8z"/><text x="100" y="300" font-family="Arial" font-size="16" font-style="italic">x</text><path stroke="#9673a6" stroke-width="3" d="M200 200V50"/><circle cx="200" cy="50" r="4" fill="#9673a6"/><path stroke="#d79b00" stroke-width="4" d="m200 200 80-130"/><path fill="#d79b00" d="m276 73 7 4 1-12z"/><text x="290" y="60" fill="#d79b00" font-family="Arial" font-size="18" font-weight="bold">|ψ&apos;⟩ = R_y(θ)|0⟩</text><path fill="none" stroke="#d28291" stroke-width="2" marker-end="url(#arrow)" d="M200 90a110 110 0 0 1 40-5"/><defs><marker id="arrow" markerHeight="10" markerUnits="strokeWidth" markerWidth="10" orient="auto" refX="6" refY="3"><path fill="#d28291" d="M0 0v6l9-3z"/></marker></defs><text x="215" y="110" fill="#d28291" font-family="Arial" font-size="20" font-weight="bold">θ</text><circle cx="200" cy="200" r="3"/></svg>