<svg xmlns="http://www.w3.org/2000/svg" width="500" height="250" viewBox="0 0 500 250"><path fill="#fff" d="M0 0h500v250H0z"/><text x="30" y="75" font-family="Arial" font-size="18" font-style="italic">q_0</text><path stroke="#000" stroke-width="2" d="M70 70h380"/><text x="30" y="175" font-family="Arial" font-size="18" font-style="italic">q_1</text><path stroke="#000" stroke-width="2" d="M70 170h380"/><rect width="50" height="40" x="100" y="50" fill="#e1d5e7" stroke="#9673a6" stroke-width="2" rx="4"/><text x="125" y="76" font-family="Arial" font-size="14" text-anchor="middle">Ry(θ₀)</text><rect width="50" height="40" x="100" y="150" fill="#e1d5e7" stroke="#9673a6" stroke-width="2" rx="4"/><text x="125" y="176" font-family="Arial" font-size="14" text-anchor="middle">Ry(θ₁)</text><path stroke="#2b8cbe" stroke-width="3" d="M220 70v100"/><circle cx="220" cy="70" r="6" fill="#2b8cbe"/><circle cx="220" cy="170" r="12" fill="#fff" stroke="#2b8cbe" stroke-width="3"/><path stroke="#2b8cbe" stroke-width="3" d="M220 158v24m-12-12h24"/><path fill="none" stroke="#d79b00" stroke-dasharray="4,4" stroke-width="2" marker-start="url(#dot)" d="M220 25q40-15 80-5"/><text x="310" y="25" fill="#d79b00" font-family="Arial" font-size="14" font-weight="bold">Entanglement &quot;Gears&quot; (CNOT)</text><rect width="50" height="40" x="290" y="50" fill="#e1d5e7" stroke="#9673a6" stroke-width="2" rx="4"/><text x="315" y="76" font-family="Arial" font-size="14" text-anchor="middle">Rx(θ₂)</text><rect width="50" height="40" x="290" y="150" fill="#e1d5e7" stroke="#9673a6" stroke-width="2" rx="4"/><text x="315" y="176" font-family="Arial" font-size="14" text-anchor="middle">Rx(θ₃)</text><text x="460" y="125" font-family="Arial" font-size="18" font-style="italic">|Ψ⟩</text><defs><marker id="dot" markerHeight="8" markerWidth="8" refX="4" refY="4"><circle cx="4" cy="4" r="2" fill="#d79b00"/></marker></defs></svg>